<svg xmlns="http://www.w3.org/2000/svg" viewBox="0 0 496.159 496.159"><path d="M248.083.003C111.07.003 0 111.063 0 248.085c0 137 111.07 248.07 248.083 248.07 137.006 0 248.076-111.07 248.076-248.07C496.16 111.062 385.09.003 248.082.003z" fill="#D61E1E"/><path d="M248.082 39.002C132.61 39.002 39 132.602 39 248.084c0 115.463 93.61 209.072 209.082 209.072 115.468 0 209.077-93.61 209.077-209.072 0-115.482-93.61-209.082-209.078-209.082z" fill="#F4EDED"/><path d="M85.85 60.394c-9.085 7.86-17.595 16.37-25.456 25.456l349.914 349.914c9.086-7.86 17.596-16.37 25.456-25.456L85.85 60.394z" fill="#D61E1E"/></svg>